<svg width="1442" height="850" xmlns="http://www.w3.org/2000/svg" xmlns:xlink="http://www.w3.org/1999/xlink" overflow="hidden"><defs><clipPath id="clip0"><rect x="-758" y="-2160" width="1442" height="850"/></clipPath></defs><g clip-path="url(#clip0)" transform="translate(758 2160)"><path d="M28.9027-1839.65C54.0619-1718.4 89.9082-1598.47 104.38-1475.91 172.622-1496.22 211.327-1563.22 233.761-1634.54 219.901-1726.62 207.589-1775.72 185.201-1838.67ZM578.286-1854.23C549.397-1838.96 428.5-1878.69 353.857-1810.9 279.214-1743.11 209.247-1465.21 130.43-1447.49 202.623-1455.95 361.037-1444.23 378.237-1498.24 439.187-1579.49 492.01-1781.11 578.286-1854.23ZM-757-2159 683-2159 683-1311-757-1311Z" fill="#FFFFFF" fill-rule="evenodd"/></g></svg>